<?xml version="1.0"?>
<svg xmlns="http://www.w3.org/2000/svg" height="512px" viewBox="-24 0 480 480" width="512px"><g><path d="m56 480h320c13.253906 0 24-10.746094 24-24v-400c0-13.253906-10.746094-24-24-24h-16v-8c0-13.253906-10.746094-24-24-24s-24 10.746094-24 24v8h-32v-8c0-13.253906-10.746094-24-24-24s-24 10.746094-24 24v8h-32v-8c0-13.253906-10.746094-24-24-24s-24 10.746094-24 24v8h-32v-8c0-13.253906-10.746094-24-24-24s-24 10.746094-24 24v8h-16c-13.253906 0-24 10.746094-24 24v312h-8c-13.253906 0-24 10.746094-24 24v16c0 17.671875 14.328125 32 32 32v16c0 13.253906 10.746094 24 24 24zm272-456c0-4.417969 3.582031-8 8-8s8 3.582031 8 8v32c0 4.417969-3.582031 8-8 8s-8-3.582031-8-8zm-80 0c0-4.417969 3.582031-8 8-8s8 3.582031 8 8v32c0 4.417969-3.582031 8-8 8s-8-3.582031-8-8zm-80 0c0-4.417969 3.582031-8 8-8s8 3.582031 8 8v32c0 4.417969-3.582031 8-8 8s-8-3.582031-8-8zm-80 0c0-4.417969 3.582031-8 8-8s8 3.582031 8 8v32c0 4.417969-3.582031 8-8 8s-8-3.582031-8-8zm-40 32c0-4.417969 3.582031-8 8-8h16v8c0 13.253906 10.746094 24 24 24s24-10.746094 24-24v-8h32v8c0 13.253906 10.746094 24 24 24s24-10.746094 24-24v-8h32v8c0 13.253906 10.746094 24 24 24s24-10.746094 24-24v-8h32v8c0 13.253906 10.746094 24 24 24s24-10.746094 24-24v-8h16c4.417969 0 8 3.582031 8 8v352c0 8.835938-7.164062 16-16 16s-16-7.164062-16-16v-16c0-13.253906-10.746094-24-24-24h-280zm280 384v-16h-296c-8.835938 0-16-7.164062-16-16v-16c0-4.417969 3.582031-8 8-8h304c4.417969 0 8 3.582031 8 8v16c0 17.671875 14.328125 32 32 32 5.632812-.03125 11.15625-1.570312 16-4.449219v20.449219c0 4.417969-3.582031 8-8 8h-320c-4.417969 0-8-3.582031-8-8v-16zm0 0" data-original="#000000" class="active-path" data-old_color="#000000" fill="#FF4A52"/><path d="m0 96h16v168h-16zm0 0" data-original="#000000" class="active-path" data-old_color="#000000" fill="#FF4A52"/><path d="m416 208h16v184h-16zm0 0" data-original="#000000" class="active-path" data-old_color="#000000" fill="#FF4A52"/><path d="m416 408h16v16h-16zm0 0" data-original="#000000" class="active-path" data-old_color="#000000" fill="#FF4A52"/><path d="m120 104h-32c-4.417969 0-8 3.582031-8 8v32c0 4.417969 3.582031 8 8 8h32c4.417969 0 8-3.582031 8-8v-32c0-4.417969-3.582031-8-8-8zm-8 32h-16v-16h16zm0 0" data-original="#000000" class="active-path" data-old_color="#000000" fill="#FF4A52"/><path d="m192 104h-32c-4.417969 0-8 3.582031-8 8v32c0 4.417969 3.582031 8 8 8h32c4.417969 0 8-3.582031 8-8v-32c0-4.417969-3.582031-8-8-8zm-8 32h-16v-16h16zm0 0" data-original="#000000" class="active-path" data-old_color="#000000" fill="#FF4A52"/><path d="m120 168h-32c-4.417969 0-8 3.582031-8 8v32c0 4.417969 3.582031 8 8 8h32c4.417969 0 8-3.582031 8-8v-32c0-4.417969-3.582031-8-8-8zm-8 32h-16v-16h16zm0 0" data-original="#000000" class="active-path" data-old_color="#000000" fill="#FF4A52"/><path d="m192 168h-32c-4.417969 0-8 3.582031-8 8v32c0 4.417969 3.582031 8 8 8h32c4.417969 0 8-3.582031 8-8v-32c0-4.417969-3.582031-8-8-8zm-8 32h-16v-16h16zm0 0" data-original="#000000" class="active-path" data-old_color="#000000" fill="#FF4A52"/><path d="m120 232h-32c-4.417969 0-8 3.582031-8 8v32c0 4.417969 3.582031 8 8 8h32c4.417969 0 8-3.582031 8-8v-32c0-4.417969-3.582031-8-8-8zm-8 32h-16v-16h16zm0 0" data-original="#000000" class="active-path" data-old_color="#000000" fill="#FF4A52"/><path d="m192 232h-32c-4.417969 0-8 3.582031-8 8v32c0 4.417969 3.582031 8 8 8h32c4.417969 0 8-3.582031 8-8v-32c0-4.417969-3.582031-8-8-8zm-8 32h-16v-16h16zm0 0" data-original="#000000" class="active-path" data-old_color="#000000" fill="#FF4A52"/><path d="m264 232h-32c-4.417969 0-8 3.582031-8 8v32c0 4.417969 3.582031 8 8 8h32c4.417969 0 8-3.582031 8-8v-32c0-4.417969-3.582031-8-8-8zm-8 32h-16v-16h16zm0 0" data-original="#000000" class="active-path" data-old_color="#000000" fill="#FF4A52"/><path d="m120 296h-32c-4.417969 0-8 3.582031-8 8v32c0 4.417969 3.582031 8 8 8h32c4.417969 0 8-3.582031 8-8v-32c0-4.417969-3.582031-8-8-8zm-8 32h-16v-16h16zm0 0" data-original="#000000" class="active-path" data-old_color="#000000" fill="#FF4A52"/><path d="m192 296h-32c-4.417969 0-8 3.582031-8 8v32c0 4.417969 3.582031 8 8 8h32c4.417969 0 8-3.582031 8-8v-32c0-4.417969-3.582031-8-8-8zm-8 32h-16v-16h16zm0 0" data-original="#000000" class="active-path" data-old_color="#000000" fill="#FF4A52"/><path d="m264 296h-32c-4.417969 0-8 3.582031-8 8v32c0 4.417969 3.582031 8 8 8h32c4.417969 0 8-3.582031 8-8v-32c0-4.417969-3.582031-8-8-8zm-8 32h-16v-16h16zm0 0" data-original="#000000" class="active-path" data-old_color="#000000" fill="#FF4A52"/><path d="m336 232h-32c-4.417969 0-8 3.582031-8 8v32c0 4.417969 3.582031 8 8 8h32c4.417969 0 8-3.582031 8-8v-32c0-4.417969-3.582031-8-8-8zm-8 32h-16v-16h16zm0 0" data-original="#000000" class="active-path" data-old_color="#000000" fill="#FF4A52"/><path d="m344 336v-32c0-4.417969-3.582031-8-8-8h-32c-4.417969 0-8 3.582031-8 8v32c0 4.417969 3.582031 8 8 8h32c4.417969 0 8-3.582031 8-8zm-16-8h-16v-16h16zm0 0" data-original="#000000" class="active-path" data-old_color="#000000" fill="#FF4A52"/><path d="m264 168c2.121094 0 4.15625-.84375 5.65625-2.34375l26.34375-26.34375v28.6875h16v-44.6875l13.65625-13.65625-11.3125-11.3125-13.65625 13.65625h-44.6875v16h28.6875l-20.6875 20.6875-10.34375-10.34375-11.3125 11.3125 16 16c1.5 1.5 3.535156 2.34375 5.65625 2.34375zm0 0" data-original="#000000" class="active-path" data-old_color="#000000" fill="#FF4A52"/><path d="m224 184h16v16h-16zm0 0" data-original="#000000" class="active-path" data-old_color="#000000" fill="#FF4A52"/><path d="m256 184h88v16h-88zm0 0" data-original="#000000" class="active-path" data-old_color="#000000" fill="#FF4A52"/></g> </svg>
