<?xml version="1.0" encoding="UTF-8"?>
<svg xmlns="http://www.w3.org/2000/svg" xmlns:xlink="http://www.w3.org/1999/xlink" width="71pt" height="71pt" viewBox="0 0 71 71" version="1.1">
<g id="surface1">
<path style=" stroke:none;fill-rule:nonzero;fill:rgb(100%,29.019608%,32.156863%);fill-opacity:1;" d="M 11.832031 71 L 59.167969 71 C 61.128906 71 62.714844 69.410156 62.714844 67.449219 L 62.714844 8.285156 C 62.714844 6.324219 61.128906 4.734375 59.167969 4.734375 L 56.800781 4.734375 L 56.800781 3.550781 C 56.800781 1.589844 55.210938 0 53.25 0 C 51.289062 0 49.699219 1.589844 49.699219 3.550781 L 49.699219 4.734375 L 44.964844 4.734375 L 44.964844 3.550781 C 44.964844 1.589844 43.378906 0 41.417969 0 C 39.457031 0 37.867188 1.589844 37.867188 3.550781 L 37.867188 4.734375 L 33.132812 4.734375 L 33.132812 3.550781 C 33.132812 1.589844 31.542969 0 29.582031 0 C 27.621094 0 26.035156 1.589844 26.035156 3.550781 L 26.035156 4.734375 L 21.300781 4.734375 L 21.300781 3.550781 C 21.300781 1.589844 19.710938 0 17.75 0 C 15.789062 0 14.199219 1.589844 14.199219 3.550781 L 14.199219 4.734375 L 11.832031 4.734375 C 9.871094 4.734375 8.285156 6.324219 8.285156 8.285156 L 8.285156 54.433594 L 7.101562 54.433594 C 5.140625 54.433594 3.550781 56.023438 3.550781 57.984375 L 3.550781 60.351562 C 3.550781 62.964844 5.667969 65.082031 8.285156 65.082031 L 8.285156 67.449219 C 8.285156 69.410156 9.871094 71 11.832031 71 Z M 52.066406 3.550781 C 52.066406 2.898438 52.597656 2.367188 53.25 2.367188 C 53.902344 2.367188 54.433594 2.898438 54.433594 3.550781 L 54.433594 8.285156 C 54.433594 8.9375 53.902344 9.464844 53.25 9.464844 C 52.597656 9.464844 52.066406 8.9375 52.066406 8.285156 Z M 40.234375 3.550781 C 40.234375 2.898438 40.761719 2.367188 41.417969 2.367188 C 42.070312 2.367188 42.601562 2.898438 42.601562 3.550781 L 42.601562 8.285156 C 42.601562 8.9375 42.070312 9.464844 41.417969 9.464844 C 40.761719 9.464844 40.234375 8.9375 40.234375 8.285156 Z M 28.398438 3.550781 C 28.398438 2.898438 28.929688 2.367188 29.582031 2.367188 C 30.238281 2.367188 30.765625 2.898438 30.765625 3.550781 L 30.765625 8.285156 C 30.765625 8.9375 30.238281 9.464844 29.582031 9.464844 C 28.929688 9.464844 28.398438 8.9375 28.398438 8.285156 Z M 16.566406 3.550781 C 16.566406 2.898438 17.097656 2.367188 17.75 2.367188 C 18.402344 2.367188 18.933594 2.898438 18.933594 3.550781 L 18.933594 8.285156 C 18.933594 8.9375 18.402344 9.464844 17.75 9.464844 C 17.097656 9.464844 16.566406 8.9375 16.566406 8.285156 Z M 10.648438 8.285156 C 10.648438 7.628906 11.179688 7.101562 11.832031 7.101562 L 14.199219 7.101562 L 14.199219 8.285156 C 14.199219 10.242188 15.789062 11.832031 17.75 11.832031 C 19.710938 11.832031 21.300781 10.242188 21.300781 8.285156 L 21.300781 7.101562 L 26.035156 7.101562 L 26.035156 8.285156 C 26.035156 10.242188 27.621094 11.832031 29.582031 11.832031 C 31.542969 11.832031 33.132812 10.242188 33.132812 8.285156 L 33.132812 7.101562 L 37.867188 7.101562 L 37.867188 8.285156 C 37.867188 10.242188 39.457031 11.832031 41.417969 11.832031 C 43.378906 11.832031 44.964844 10.242188 44.964844 8.285156 L 44.964844 7.101562 L 49.699219 7.101562 L 49.699219 8.285156 C 49.699219 10.242188 51.289062 11.832031 53.25 11.832031 C 55.210938 11.832031 56.800781 10.242188 56.800781 8.285156 L 56.800781 7.101562 L 59.167969 7.101562 C 59.820312 7.101562 60.351562 7.628906 60.351562 8.285156 L 60.351562 60.351562 C 60.351562 61.65625 59.289062 62.714844 57.984375 62.714844 C 56.675781 62.714844 55.617188 61.65625 55.617188 60.351562 L 55.617188 57.984375 C 55.617188 56.023438 54.027344 54.433594 52.066406 54.433594 L 10.648438 54.433594 Z M 52.066406 65.082031 L 52.066406 62.714844 L 8.285156 62.714844 C 6.976562 62.714844 5.917969 61.65625 5.917969 60.351562 L 5.917969 57.984375 C 5.917969 57.328125 6.445312 56.800781 7.101562 56.800781 L 52.066406 56.800781 C 52.71875 56.800781 53.25 57.328125 53.25 57.984375 L 53.25 60.351562 C 53.25 62.964844 55.371094 65.082031 57.984375 65.082031 C 58.816406 65.078125 59.632812 64.851562 60.351562 64.425781 L 60.351562 67.449219 C 60.351562 68.101562 59.820312 68.632812 59.167969 68.632812 L 11.832031 68.632812 C 11.179688 68.632812 10.648438 68.101562 10.648438 67.449219 L 10.648438 65.082031 Z M 52.066406 65.082031 "/>
<path style=" stroke:none;fill-rule:nonzero;fill:rgb(100%,29.019608%,32.156863%);fill-opacity:1;" d="M 3.550781 14.199219 L 5.917969 14.199219 L 5.917969 39.050781 L 3.550781 39.050781 Z M 3.550781 14.199219 "/>
<path style=" stroke:none;fill-rule:nonzero;fill:rgb(100%,29.019608%,32.156863%);fill-opacity:1;" d="M 65.082031 30.765625 L 67.449219 30.765625 L 67.449219 57.984375 L 65.082031 57.984375 Z M 65.082031 30.765625 "/>
<path style=" stroke:none;fill-rule:nonzero;fill:rgb(100%,29.019608%,32.156863%);fill-opacity:1;" d="M 65.082031 60.351562 L 67.449219 60.351562 L 67.449219 62.714844 L 65.082031 62.714844 Z M 65.082031 60.351562 "/>
<path style=" stroke:none;fill-rule:nonzero;fill:rgb(100%,29.019608%,32.156863%);fill-opacity:1;" d="M 21.300781 15.382812 L 16.566406 15.382812 C 15.914062 15.382812 15.382812 15.914062 15.382812 16.566406 L 15.382812 21.300781 C 15.382812 21.953125 15.914062 22.484375 16.566406 22.484375 L 21.300781 22.484375 C 21.953125 22.484375 22.484375 21.953125 22.484375 21.300781 L 22.484375 16.566406 C 22.484375 15.914062 21.953125 15.382812 21.300781 15.382812 Z M 20.117188 20.117188 L 17.75 20.117188 L 17.75 17.75 L 20.117188 17.75 Z M 20.117188 20.117188 "/>
<path style=" stroke:none;fill-rule:nonzero;fill:rgb(100%,29.019608%,32.156863%);fill-opacity:1;" d="M 31.949219 15.382812 L 27.214844 15.382812 C 26.5625 15.382812 26.035156 15.914062 26.035156 16.566406 L 26.035156 21.300781 C 26.035156 21.953125 26.5625 22.484375 27.214844 22.484375 L 31.949219 22.484375 C 32.601562 22.484375 33.132812 21.953125 33.132812 21.300781 L 33.132812 16.566406 C 33.132812 15.914062 32.601562 15.382812 31.949219 15.382812 Z M 30.765625 20.117188 L 28.398438 20.117188 L 28.398438 17.75 L 30.765625 17.75 Z M 30.765625 20.117188 "/>
<path style=" stroke:none;fill-rule:nonzero;fill:rgb(100%,29.019608%,32.156863%);fill-opacity:1;" d="M 21.300781 24.851562 L 16.566406 24.851562 C 15.914062 24.851562 15.382812 25.378906 15.382812 26.035156 L 15.382812 30.765625 C 15.382812 31.421875 15.914062 31.949219 16.566406 31.949219 L 21.300781 31.949219 C 21.953125 31.949219 22.484375 31.421875 22.484375 30.765625 L 22.484375 26.035156 C 22.484375 25.378906 21.953125 24.851562 21.300781 24.851562 Z M 20.117188 29.582031 L 17.75 29.582031 L 17.75 27.214844 L 20.117188 27.214844 Z M 20.117188 29.582031 "/>
<path style=" stroke:none;fill-rule:nonzero;fill:rgb(100%,29.019608%,32.156863%);fill-opacity:1;" d="M 31.949219 24.851562 L 27.214844 24.851562 C 26.5625 24.851562 26.035156 25.378906 26.035156 26.035156 L 26.035156 30.765625 C 26.035156 31.421875 26.5625 31.949219 27.214844 31.949219 L 31.949219 31.949219 C 32.601562 31.949219 33.132812 31.421875 33.132812 30.765625 L 33.132812 26.035156 C 33.132812 25.378906 32.601562 24.851562 31.949219 24.851562 Z M 30.765625 29.582031 L 28.398438 29.582031 L 28.398438 27.214844 L 30.765625 27.214844 Z M 30.765625 29.582031 "/>
<path style=" stroke:none;fill-rule:nonzero;fill:rgb(100%,29.019608%,32.156863%);fill-opacity:1;" d="M 21.300781 34.316406 L 16.566406 34.316406 C 15.914062 34.316406 15.382812 34.847656 15.382812 35.5 L 15.382812 40.234375 C 15.382812 40.886719 15.914062 41.417969 16.566406 41.417969 L 21.300781 41.417969 C 21.953125 41.417969 22.484375 40.886719 22.484375 40.234375 L 22.484375 35.5 C 22.484375 34.847656 21.953125 34.316406 21.300781 34.316406 Z M 20.117188 39.050781 L 17.75 39.050781 L 17.75 36.683594 L 20.117188 36.683594 Z M 20.117188 39.050781 "/>
<path style=" stroke:none;fill-rule:nonzero;fill:rgb(100%,29.019608%,32.156863%);fill-opacity:1;" d="M 31.949219 34.316406 L 27.214844 34.316406 C 26.5625 34.316406 26.035156 34.847656 26.035156 35.5 L 26.035156 40.234375 C 26.035156 40.886719 26.5625 41.417969 27.214844 41.417969 L 31.949219 41.417969 C 32.601562 41.417969 33.132812 40.886719 33.132812 40.234375 L 33.132812 35.5 C 33.132812 34.847656 32.601562 34.316406 31.949219 34.316406 Z M 30.765625 39.050781 L 28.398438 39.050781 L 28.398438 36.683594 L 30.765625 36.683594 Z M 30.765625 39.050781 "/>
<path style=" stroke:none;fill-rule:nonzero;fill:rgb(100%,29.019608%,32.156863%);fill-opacity:1;" d="M 42.601562 34.316406 L 37.867188 34.316406 C 37.214844 34.316406 36.683594 34.847656 36.683594 35.5 L 36.683594 40.234375 C 36.683594 40.886719 37.214844 41.417969 37.867188 41.417969 L 42.601562 41.417969 C 43.253906 41.417969 43.785156 40.886719 43.785156 40.234375 L 43.785156 35.5 C 43.785156 34.847656 43.253906 34.316406 42.601562 34.316406 Z M 41.417969 39.050781 L 39.050781 39.050781 L 39.050781 36.683594 L 41.417969 36.683594 Z M 41.417969 39.050781 "/>
<path style=" stroke:none;fill-rule:nonzero;fill:rgb(100%,29.019608%,32.156863%);fill-opacity:1;" d="M 21.300781 43.785156 L 16.566406 43.785156 C 15.914062 43.785156 15.382812 44.3125 15.382812 44.964844 L 15.382812 49.699219 C 15.382812 50.351562 15.914062 50.882812 16.566406 50.882812 L 21.300781 50.882812 C 21.953125 50.882812 22.484375 50.351562 22.484375 49.699219 L 22.484375 44.964844 C 22.484375 44.3125 21.953125 43.785156 21.300781 43.785156 Z M 20.117188 48.515625 L 17.75 48.515625 L 17.75 46.148438 L 20.117188 46.148438 Z M 20.117188 48.515625 "/>
<path style=" stroke:none;fill-rule:nonzero;fill:rgb(100%,29.019608%,32.156863%);fill-opacity:1;" d="M 31.949219 43.785156 L 27.214844 43.785156 C 26.5625 43.785156 26.035156 44.3125 26.035156 44.964844 L 26.035156 49.699219 C 26.035156 50.351562 26.5625 50.882812 27.214844 50.882812 L 31.949219 50.882812 C 32.601562 50.882812 33.132812 50.351562 33.132812 49.699219 L 33.132812 44.964844 C 33.132812 44.3125 32.601562 43.785156 31.949219 43.785156 Z M 30.765625 48.515625 L 28.398438 48.515625 L 28.398438 46.148438 L 30.765625 46.148438 Z M 30.765625 48.515625 "/>
<path style=" stroke:none;fill-rule:nonzero;fill:rgb(100%,29.019608%,32.156863%);fill-opacity:1;" d="M 42.601562 43.785156 L 37.867188 43.785156 C 37.214844 43.785156 36.683594 44.3125 36.683594 44.964844 L 36.683594 49.699219 C 36.683594 50.351562 37.214844 50.882812 37.867188 50.882812 L 42.601562 50.882812 C 43.253906 50.882812 43.785156 50.351562 43.785156 49.699219 L 43.785156 44.964844 C 43.785156 44.3125 43.253906 43.785156 42.601562 43.785156 Z M 41.417969 48.515625 L 39.050781 48.515625 L 39.050781 46.148438 L 41.417969 46.148438 Z M 41.417969 48.515625 "/>
<path style=" stroke:none;fill-rule:nonzero;fill:rgb(100%,29.019608%,32.156863%);fill-opacity:1;" d="M 53.25 34.316406 L 48.515625 34.316406 C 47.863281 34.316406 47.332031 34.847656 47.332031 35.5 L 47.332031 40.234375 C 47.332031 40.886719 47.863281 41.417969 48.515625 41.417969 L 53.25 41.417969 C 53.902344 41.417969 54.433594 40.886719 54.433594 40.234375 L 54.433594 35.5 C 54.433594 34.847656 53.902344 34.316406 53.25 34.316406 Z M 52.066406 39.050781 L 49.699219 39.050781 L 49.699219 36.683594 L 52.066406 36.683594 Z M 52.066406 39.050781 "/>
<path style=" stroke:none;fill-rule:nonzero;fill:rgb(100%,29.019608%,32.156863%);fill-opacity:1;" d="M 54.433594 49.699219 L 54.433594 44.964844 C 54.433594 44.3125 53.902344 43.785156 53.25 43.785156 L 48.515625 43.785156 C 47.863281 43.785156 47.332031 44.3125 47.332031 44.964844 L 47.332031 49.699219 C 47.332031 50.351562 47.863281 50.882812 48.515625 50.882812 L 53.25 50.882812 C 53.902344 50.882812 54.433594 50.351562 54.433594 49.699219 Z M 52.066406 48.515625 L 49.699219 48.515625 L 49.699219 46.148438 L 52.066406 46.148438 Z M 52.066406 48.515625 "/>
<path style=" stroke:none;fill-rule:nonzero;fill:rgb(100%,29.019608%,32.156863%);fill-opacity:1;" d="M 42.601562 24.851562 C 42.914062 24.851562 43.214844 24.726562 43.4375 24.503906 L 47.332031 20.605469 L 47.332031 24.851562 L 49.699219 24.851562 L 49.699219 18.238281 L 51.71875 16.21875 L 50.046875 14.546875 L 48.027344 16.566406 L 41.417969 16.566406 L 41.417969 18.933594 L 45.660156 18.933594 L 42.601562 21.992188 L 41.070312 20.464844 L 39.398438 22.136719 L 41.761719 24.503906 C 41.984375 24.726562 42.285156 24.851562 42.601562 24.851562 Z M 42.601562 24.851562 "/>
<path style=" stroke:none;fill-rule:nonzero;fill:rgb(100%,29.019608%,32.156863%);fill-opacity:1;" d="M 36.683594 27.214844 L 39.050781 27.214844 L 39.050781 29.582031 L 36.683594 29.582031 Z M 36.683594 27.214844 "/>
<path style=" stroke:none;fill-rule:nonzero;fill:rgb(100%,29.019608%,32.156863%);fill-opacity:1;" d="M 41.417969 27.214844 L 54.433594 27.214844 L 54.433594 29.582031 L 41.417969 29.582031 Z M 41.417969 27.214844 "/>
</g>
</svg>
